<svg xmlns="http://www.w3.org/2000/svg"
     width="500" zoomAndPan="magnify"
     viewBox="0 0 375 374.999991" height="500"
     preserveAspectRatio="xMidYMid meet" version="1.0">
    <defs>
        <g/>
        <clipPath id="5ac231f414">
            <path d="M 10.703125 11.949219 L 364.925781 11.949219 L 364.925781 363 L 10.703125 363 Z M 10.703125 11.949219 "
                  clip-rule="nonzero"/>
        </clipPath>
        <clipPath id="4bcb2e06f6">
            <path d="M 187.5 11.949219 C 89.855469 11.949219 10.703125 90.546875 10.703125 187.5 C 10.703125 284.453125 89.855469 363.050781 187.5 363.050781 C 285.144531 363.050781 364.296875 284.453125 364.296875 187.5 C 364.296875 90.546875 285.144531 11.949219 187.5 11.949219 "
                  clip-rule="nonzero"/>
        </clipPath>
        <clipPath id="50b1cfa148">
            <path d="M 37.5 137.347656 L 139.5 137.347656 L 139.5 239.3125 L 37.5 239.3125 Z M 37.5 137.347656 "
                  clip-rule="nonzero"/>
        </clipPath>
    </defs>
    <g clip-path="url(#5ac231f414)">
        <g clip-path="url(#4bcb2e06f6)">
            <path fill="#002147"
                  d="M 10.703125 11.949219 L 364.246094 11.949219 L 364.246094 362.773438 L 10.703125 362.773438 Z M 10.703125 11.949219 "
                  fill-opacity="1" fill-rule="nonzero"/>
        </g>
    </g>
    <g fill="#ffffff" fill-opacity="1">
        <g transform="translate(155.71078, 234.67898)">
            <g>
                <path d="M 30.644531 0.667969 L -0.9375 -93.007812 L 19.539062 -93.007812 L 34.929688 -44.5625 C 35.910156 -41.621094 36.890625 -38.140625 37.871094 -34.125 C 38.320312 -32.253906 38.765625 -30.332031 39.210938 -28.371094 C 39.65625 -30.601562 40.191406 -32.832031 40.816406 -35.0625 C 41.796875 -38.542969 43.046875 -42.511719 44.5625 -46.972656 L 60.355469 -93.007812 L 80.027344 -93.144531 L 47.640625 0.667969 Z M 30.644531 0.667969 "/>
            </g>
        </g>
    </g>
    <g fill="#ffffff" fill-opacity="1">
        <g transform="translate(256.342179, 234.67898)">
            <g>
                <path d="M 9.101562 0 L 9.101562 -93.007812 L 62.09375 -93.007812 L 59.6875 -77.753906 L 27.835938 -77.753906 L 27.835938 -56.207031 L 54.46875 -56.207031 L 54.46875 -40.949219 L 28.105469 -40.949219 L 28.105469 -16.058594 L 63.300781 -16.058594 L 63.300781 0 Z M 9.101562 0 "/>
            </g>
        </g>
    </g>
    <g clip-path="url(#50b1cfa148)">
        <path fill="#ffffff"
              d="M 139.144531 184.183594 C 137.011719 158.039062 115.65625 137.90625 89.464844 137.347656 C 89.414062 137.347656 89.359375 137.347656 89.3125 137.347656 C 88.996094 137.359375 81.480469 137.625 73.953125 142.3125 C 67.289062 146.464844 59.402344 154.910156 58.730469 171.734375 C 46.121094 175.75 38.207031 183.085938 37.628906 191.324219 C 37.519531 191.683594 37.480469 192.070312 37.507812 192.464844 C 39.675781 219.082031 62.035156 239.3125 88.289062 239.3125 C 89.671875 239.3125 91.066406 239.253906 92.464844 239.140625 C 106.039062 238.035156 118.371094 231.710938 127.1875 221.332031 C 136.003906 210.949219 140.25 197.761719 139.144531 184.183594 Z M 88.761719 143.628906 C 105.320312 152.125 115.574219 168.878906 115.574219 187.523438 C 115.574219 190.992188 115.011719 194.335938 114.378906 197.183594 L 94.292969 187.566406 C 95.066406 185.976562 95.511719 184.199219 95.511719 182.316406 C 95.511719 175.660156 90.113281 170.265625 83.460938 170.265625 C 78.648438 170.265625 74.511719 173.085938 72.578125 177.164062 L 64.925781 173.496094 C 65.210938 147.253906 84.648438 144.015625 88.761719 143.628906 Z M 43.824219 192.300781 C 43.824219 186.203125 51.203125 180.226562 62.625 177.070312 C 62.839844 177.011719 63.039062 176.925781 63.226562 176.828125 L 71.515625 180.796875 C 71.453125 181.296875 71.410156 181.800781 71.410156 182.316406 C 71.410156 188.972656 76.804688 194.367188 83.460938 194.367188 C 86.871094 194.367188 89.9375 192.945312 92.132812 190.671875 L 112.472656 200.414062 C 106.035156 206.109375 93.632812 209.808594 80.355469 209.808594 C 60.550781 209.808594 43.824219 201.789062 43.824219 192.300781 Z M 91.960938 232.933594 C 73.144531 234.46875 56.054688 224.070312 48.167969 208.085938 C 55.945312 212.988281 67.390625 216.035156 80.351562 216.035156 C 97.128906 216.035156 112.378906 210.683594 119.207031 202.402344 C 119.5 202.046875 119.707031 201.632812 119.824219 201.1875 C 120.742188 197.566406 121.800781 192.742188 121.800781 187.523438 C 121.800781 171.375 114.972656 156.488281 103.335938 146.117188 C 119.542969 151.84375 131.464844 166.632812 132.9375 184.691406 C 134.9375 209.289062 116.558594 230.929688 91.960938 232.933594 Z M 91.960938 232.933594 "
              fill-opacity="1" fill-rule="nonzero"/>
    </g>
</svg>